<?xml version="1.0" encoding="UTF-8"?> <svg xmlns="http://www.w3.org/2000/svg" width="175" height="97" viewBox="0 0 175 97" fill="none"><path d="M50.3885 14.109L48.1092 0.679893C48.0431 0.289245 47.9364 -0.00500873 47.4587 6.46158e-05C46.9988 0.00513796 46.8844 0.301929 46.8184 0.677356L44.3612 14.2257C44.2672 14.7432 44.3612 15.0172 44.9456 15.0172H49.7202C50.3453 15.0172 50.5003 14.766 50.3885 14.109ZM82.7941 44.4299C82.9847 43.5319 83.3074 41.5736 83.8283 40.5285C84.2806 39.6204 85.4927 38.5499 86.2601 37.898C86.6488 37.5682 87.0478 37.2511 87.4823 36.9797C88.0947 36.5941 88.5546 36.4292 89.2991 36.4521C89.5431 36.4597 89.9039 36.5003 90.1529 36.5358C90.3333 36.5637 90.5239 36.6093 90.6662 36.6931C90.8009 36.7742 90.8923 36.9163 90.9279 37.071C90.9635 37.2334 90.933 37.4033 90.8492 37.5454C90.6459 37.8802 90.1936 38.9355 89.8556 39.3921C89.6142 39.7168 89.416 39.6534 89.0806 39.6026C88.9383 39.5823 88.7604 39.5595 88.5724 39.5417C86.8369 39.3769 86.7861 40.1074 86.4202 41.5305C86.2067 42.3651 86.0517 43.0829 85.8815 43.9327L84.2018 52.3063C84.0291 53.1713 83.8512 54.0338 83.6886 54.9013C84.3365 54.5969 84.9159 54.2519 85.541 53.9424C85.7773 53.8257 85.9933 53.7446 86.1737 53.7496C86.5116 53.7573 86.6209 54.0414 86.6107 54.3305L86.6006 54.602C86.5777 55.2894 86.5091 55.3148 85.9577 55.7257L84.6186 56.7252C83.9528 57.2198 82.6544 58.2446 81.948 58.4932C81.6125 58.6124 81.3305 58.5795 81.0434 58.341C80.4284 57.8261 80.5479 57.0499 80.6088 56.2533C80.0981 56.6516 79.0258 57.5242 78.0831 58.0823C76.8939 58.7849 75.8953 58.8408 75.4607 57.3847C74.889 55.472 75.6615 51.6772 76.5102 49.3688C76.9828 48.0853 77.2496 47.6616 78.1873 46.7713C78.7437 46.2411 79.4273 45.678 80.0752 45.234C80.8198 44.7242 81.3889 44.3665 82.291 44.3995C82.4562 44.4045 82.6239 44.4198 82.7916 44.4324L82.7941 44.4299ZM80.9087 53.3717L82.1868 47.4967C81.5795 47.2634 80.7537 47.0376 80.2506 47.5754C79.3968 48.4835 78.3346 53.2017 78.4159 54.6578C78.4464 55.2235 78.6777 55.155 79.0105 54.9596C79.4247 54.7161 79.8262 54.3508 80.2277 53.9982C80.4767 53.7801 80.7105 53.5619 80.9112 53.3717H80.9087ZM37.3302 55.1626L37.7622 55.2006C39.8306 55.4289 40.4887 54.5132 41.1011 52.669L41.2866 52.0678L41.6499 50.6169L43.2711 43.2909C42.308 43.2402 40.9181 43.1286 39.9703 43.6182C38.7735 44.2346 38.9209 45.3 39.2792 46.3882C39.5002 47.0579 39.8153 47.8646 39.9627 48.24C40.0465 48.4505 40.0897 48.8234 39.7569 49.0289C39.4672 49.2065 38.6464 49.833 38.1077 50.1704C37.4827 50.5611 37.2667 50.4317 36.9897 49.8457C36.0343 47.8443 36.1537 45.7363 37.3912 43.8693C37.7622 43.3087 38.2119 42.639 38.7227 42.0251C39.8738 40.6401 40.57 40.2469 42.3589 40.0186C42.9255 39.9451 43.4998 39.9146 44.0309 39.9197C44.5492 39.9248 44.3688 39.9375 44.877 39.5544C45.1921 39.316 45.6927 39.4935 45.7435 39.9045L49.0621 52.1465L49.5398 53.6634L51.5879 43.7704C52.0707 41.7816 52.3883 40.3814 53.7528 38.8264C54.7718 37.6671 55.5976 36.7539 57.2289 36.6601C57.5211 36.6423 57.8057 36.6575 58.0065 36.7286C58.3724 36.8554 58.3902 37.345 58.2657 37.6519L57.5593 39.4048C57.4271 39.732 57.173 39.8208 56.8351 39.8233C54.7845 39.8512 54.6295 40.2571 54.0552 42.3904L53.5546 44.5593L50.945 57.1361C51.1889 57.8134 51.7403 58.757 52.3705 59.6018C53.3031 60.8523 54.7692 62.5595 56.2786 61.177C57.1679 60.3628 57.14 59.4952 57.6888 59.4064C58.1793 59.3278 58.3902 59.8503 58.4893 60.4211C58.5655 60.8625 58.7764 62.4936 58.5121 62.7929C58.2911 63.044 57.6609 63.2571 57.3661 63.351C56.1744 63.734 54.8429 63.8253 53.6562 63.6097C50.1268 62.9679 47.8271 58.9955 46.732 55.7967C46.1272 54.0338 45.6673 52.1921 45.2734 50.3606L44.5162 46.893C44.2316 48.2121 43.98 49.554 43.6751 50.8731C43.3931 52.0983 42.8925 54.0185 41.8939 55.604C41.0934 56.8723 39.9093 57.9174 38.7303 58.2979C37.0685 58.8357 34.7638 58.8281 35.338 57.6206L36.3239 55.6978C36.5882 55.1829 36.7407 55.1575 37.3353 55.1626H37.3302ZM74.5333 47.9787C73.4482 47.7276 72.3785 48.0853 72.0888 49.2445C71.6746 50.9035 70.6658 55.2285 70.2288 56.852C70.0204 57.6308 69.9899 57.6333 69.3343 57.9098C68.8795 58.1026 68.2112 58.3841 67.7996 58.5161C67.5505 58.5972 67.36 58.6505 67.144 58.4552C66.8695 58.2066 66.9432 57.9276 67.0093 57.6155C67.3422 56.02 68.8668 50.5027 69.1819 48.8361C69.2632 48.5165 69.3267 48.2324 69.2657 47.9077C68.6864 48.1081 68.4704 48.2146 67.9317 48.4455C67.5099 48.6281 67.055 48.7194 66.9102 48.1791C66.8746 48.0472 66.8645 47.6845 66.9153 47.3547C66.9915 46.8423 67.3168 46.6799 67.8707 46.3629C68.4602 46.0255 69.0421 45.6856 69.6316 45.3431C70.0255 45.1148 70.4575 44.8738 70.864 44.6886C71.2553 44.5085 71.9262 44.2067 72.3327 44.5009C72.6529 44.7318 72.7342 45.2416 72.7037 45.7211C73.7481 44.7292 74.6806 44.0393 76.157 44.577C76.4848 44.6963 76.5635 45.0286 76.5026 45.338L75.8495 47.3775C75.5725 48.2425 75.415 48.1816 74.5358 47.9787H74.5333ZM106.771 56.5349C104.029 58.0316 99.4835 59.7108 96.8053 57.788C96.1929 57.3492 95.7076 56.7404 95.3951 56.058C94.2109 53.4782 94.8462 49.242 95.6974 47.0604C96.0786 46.0864 96.5817 45.1732 97.1915 44.3335C97.8522 43.4228 98.6247 42.6111 99.5039 41.911C101.001 40.7213 102.767 39.8867 104.644 39.5696C106.268 39.2957 108.161 39.3997 109.5 40.4575C109.953 40.8151 110.303 41.254 110.138 41.6573C109.975 42.053 109.411 43.6309 109.038 44.5314C108.86 44.9626 108.781 45.1706 108.227 45.4801C107.762 45.7414 107.15 46.0052 107.002 45.3L106.98 44.4274C106.962 43.6917 107.048 42.8445 106.408 42.3346C105.966 41.982 105.391 41.7943 104.827 41.7892C103.641 41.7791 102.276 42.4437 101.519 43.121C99.0846 45.2975 97.8852 49.9117 98.2435 53.0825C98.6857 56.9991 102.047 56.781 104.858 55.4264L106.118 54.7871C106.591 54.536 107.551 53.7953 107.874 54.4269C108.042 54.7592 107.849 55.259 107.734 55.5837C107.605 55.954 107.272 56.261 106.764 56.5375L106.771 56.5349ZM119.545 65.1063C119.753 64.8983 120.155 64.9009 120.432 64.8679L123.636 50.6245C123.857 49.6453 123.984 49.0949 124.078 48.1335C123.613 48.3237 123.374 48.4911 122.947 48.6966C122.541 48.8919 122.083 48.9934 121.936 48.4328C121.883 48.2349 121.918 48.0015 121.964 47.7809C122.088 47.1492 122.264 47.0452 122.805 46.6495C123.59 46.0787 124.538 45.3609 125.374 44.9271C125.753 44.7318 126.162 44.5364 126.601 44.5999C127.036 44.6658 127.414 44.955 127.529 45.4344C127.608 45.7667 127.536 46.1295 127.47 46.5074C127.928 46.1523 128.372 45.7743 128.84 45.442C129.368 45.0666 130.065 44.6328 130.746 44.5897C131.323 44.5517 131.859 44.7622 132.235 45.2214C132.723 45.8149 132.842 46.8524 132.867 47.583C132.903 48.5596 132.651 49.9472 132.446 50.8553C131.912 53.1789 131.343 54.7288 129.584 56.4157C128.482 57.476 127.318 58.3055 125.788 58.3461C125.486 58.3537 125.201 58.3309 124.901 58.2852L123.509 64.982C123.778 65.0277 124.576 65.1216 125.1 65.2256C125.387 65.2839 125.648 65.3321 125.796 65.6162C125.859 65.7405 125.877 65.8826 125.852 66.0246C125.788 66.3924 125.481 66.641 125.214 66.8744C124.932 67.123 124.449 67.1915 123.806 67.1889L119.197 67.1636C118.264 67.1585 117.962 66.3721 118.676 65.8369L119.547 65.1089L119.545 65.1063ZM128.001 48.4581L128.342 54.4295C129.051 52.8415 130.034 49.7721 129.6 48.0244C129.496 47.5982 129.295 47.725 128.759 48.0041C128.69 48.0396 128.614 48.0802 128.535 48.1284C127.976 48.448 127.369 48.8336 126.916 49.2876C126.685 49.521 125.547 55.0789 125.646 55.1981L125.651 55.2032L125.75 55.2894C126.368 55.7232 127.31 55.7714 127.849 55.2006L128.344 54.4295L128.001 48.4581ZM173.244 39.4935L172.642 39.3971C172.213 39.354 171.682 39.2475 171.278 39.4149C170.866 39.5874 170.688 40.0136 170.497 40.767L167.857 50.7893C167.646 51.5985 167.009 53.9221 167.151 54.8582C167.189 55.1118 167.387 55.0713 167.583 54.952C167.982 54.711 168.381 54.498 168.792 54.2747C168.993 54.1657 169.194 54.0566 169.397 53.9526C169.91 53.6862 170.523 53.4808 170.663 54.1403C170.701 54.3204 170.655 54.7466 170.563 55.089C170.462 55.467 170.302 55.5887 169.875 55.8728L166.587 58.0696C166.173 58.3461 165.802 58.5998 165.271 58.5871C164.574 58.5719 164.191 58.0366 164 57.3796C163.71 56.37 163.868 55.7587 164.089 54.7948L164.61 52.5244L167.364 41.2362C167.692 39.6229 168.98 38.7706 170.165 37.8117C171.049 37.0964 171.974 36.4571 173.077 36.4318C173.323 36.4267 174.479 36.5713 174.71 36.7032C174.832 36.7742 174.926 36.8808 174.97 37.0177C175.059 37.2866 174.937 37.4718 174.804 37.7077C174.472 38.3013 173.806 39.2906 173.704 39.3794C173.6 39.4834 173.448 39.524 173.247 39.4935H173.244ZM64.1583 44.7267C65.1518 45.2848 65.5457 46.4795 65.6143 47.7885C65.7693 50.7741 64.7554 53.808 62.7455 55.9921C61.6554 57.1767 60.2629 58.1711 58.657 58.4856C57.9658 58.6201 57.2492 58.6302 56.6445 58.4019C55.4019 57.9377 55.0589 56.5222 54.97 55.3376C54.8581 53.8486 55.1224 52.1515 55.4553 51.0329C56.2074 48.5038 58.2199 45.7033 60.8778 44.7419C61.8536 44.3893 63.2054 44.1889 64.1583 44.7242V44.7267ZM61.2539 47.0604C59.2897 47.0604 58.2758 51.2941 58.1284 52.7832C58.0751 53.3209 57.9938 54.1276 58.1132 54.8024C58.2199 55.4086 58.4181 55.817 59.061 55.921C59.8055 56.0428 60.3823 55.4695 60.8041 54.8607C61.414 53.9805 61.6706 53.3463 62.0391 52.3418C62.3084 51.6087 62.4787 50.9238 62.5422 49.8356C62.5701 49.3485 62.5828 48.831 62.4837 48.3465C62.3389 47.6413 62.0314 47.0554 61.2539 47.0554V47.0604ZM134.44 47.0122C135.134 46.5531 138.221 44.3995 139.068 44.3995C139.451 44.3995 139.812 44.6328 139.992 44.9525C140.214 45.3431 140.038 45.9037 139.967 46.3197L137.889 55.0814C138.092 55.1778 138.902 54.81 139.484 54.5233C139.766 54.3838 140.061 54.224 140.351 54.1022C140.727 53.9424 141.141 53.8562 141.273 54.4219C141.316 54.6045 141.248 55.0535 141.159 55.3909C141.06 55.7612 140.889 55.8982 140.445 56.162C139.619 56.6567 137.589 57.8515 136.511 58.341C135.739 58.6936 134.971 58.6886 134.595 57.8033C134.128 56.7049 134.943 54.1378 135.276 52.7401L136.364 48.1664L135.259 48.6332C134.867 48.7981 134.451 48.9731 134.219 48.7118C134.067 48.5393 134.077 48.1588 134.1 47.8823C134.128 47.5551 134.168 47.2025 134.443 47.0148L134.44 47.0122ZM141.083 42.0809C141.164 42.3828 141.156 42.6771 140.821 42.8622L138.89 44.0215C138.536 44.2295 138.221 43.9682 137.988 43.6435C137.647 43.1717 137.403 42.464 137.269 41.8983C137.164 41.4671 137.126 40.9826 137.518 40.7771C137.929 40.5589 139.624 39.5113 139.937 39.4834C140.165 39.4631 140.374 39.6026 140.473 39.8055C140.579 40.181 140.643 40.597 140.747 40.9851C140.846 41.3605 140.986 41.7131 141.085 42.0784L141.083 42.0809ZM110.321 58.4577C110.158 58.3613 110.024 58.2294 109.914 58.0772C109.622 57.6713 109.513 57.0905 109.449 56.6085C109.259 55.1803 109.442 53.326 109.782 51.8116C110.125 50.2769 110.847 48.4886 111.848 47.2887C112.562 46.4313 113.418 45.7642 114.422 45.0945C115.698 44.2422 116.968 44.2523 118.427 44.5567L119.382 44.8104C119.84 44.9398 120.627 45.0412 120.663 45.546C120.683 45.8378 120.485 46.0305 120.322 46.2487C120.076 46.5759 119.857 46.8423 119.682 47.2253C119.413 47.8164 119.303 48.5647 119.174 49.2065L118.051 54.7668L120.132 53.7319C120.355 53.6203 120.579 53.6862 120.729 53.8359C120.948 54.054 120.922 54.328 120.92 54.607C120.92 54.7466 120.912 54.8886 120.884 55.018C120.823 55.2945 120.218 55.7536 119.873 55.9921C119.021 56.578 116.376 58.6302 115.642 58.6302C115.22 58.6302 114.941 58.3867 114.773 58.0595C114.445 57.4228 114.61 56.819 114.702 56.1493C113.894 56.7531 112.036 58.2117 111.236 58.5592C110.946 58.6835 110.593 58.615 110.321 58.4552V58.4577ZM115.205 53.1434L116.651 47.2786L115.624 47.0909C114.659 46.964 114.216 47.6058 113.833 48.4404C113.604 48.9376 113.391 49.4525 113.223 49.9725C112.753 51.4159 112.247 53.4351 112.537 54.602C112.618 54.9038 112.74 54.9622 113.147 54.7592C113.906 54.3128 114.575 53.7547 115.207 53.1434H115.205ZM152.23 58.4577C152.067 58.3613 151.933 58.2294 151.823 58.0772C151.531 57.6713 151.422 57.0905 151.358 56.6085C151.168 55.1803 151.351 53.326 151.691 51.8116C152.034 50.2769 152.756 48.4886 153.755 47.2887C154.469 46.4313 155.325 45.7642 156.329 45.0945C157.604 44.2422 158.875 44.2523 160.333 44.5567L161.289 44.8104C161.746 44.9398 162.534 45.0412 162.569 45.546C162.59 45.8378 162.392 46.0305 162.229 46.2487C161.982 46.5759 161.764 46.8423 161.589 47.2253C161.319 47.8164 161.21 48.5647 161.08 49.2065L159.957 54.7668L162.038 53.7319C162.262 53.6203 162.486 53.6862 162.636 53.8359C162.854 54.054 162.829 54.328 162.826 54.607C162.826 54.7466 162.818 54.8886 162.791 55.018C162.73 55.2945 162.125 55.7536 161.779 55.9921C160.928 56.578 158.283 58.6302 157.548 58.6302C157.127 58.6302 156.847 58.3867 156.679 58.0595C156.352 57.4228 156.517 56.819 156.606 56.1493C155.798 56.7531 153.94 58.2117 153.14 58.5592C152.85 58.6835 152.497 58.615 152.225 58.4552L152.23 58.4577ZM157.114 53.1434L158.56 47.2786L157.533 47.0909C156.568 46.964 156.125 47.6058 155.742 48.4404C155.513 48.9376 155.3 49.4525 155.132 49.9725C154.662 51.4159 154.156 53.4351 154.446 54.602C154.527 54.9038 154.649 54.9622 155.056 54.7592C155.815 54.3128 156.484 53.7547 157.116 53.1434H157.114ZM150.423 48.3389C149.989 48.8767 149.529 48.6383 147.168 48.6383C147.046 49.2192 146.18 53.0495 146.017 54.2291C145.999 54.3661 145.974 54.6755 146.02 54.8024C146.083 54.9774 146.233 55.1068 146.454 55.0789C146.602 55.0586 146.762 54.9901 146.866 54.952L147.923 54.4599C148.246 54.3103 148.535 54.1555 148.85 54.0033C149.229 53.8207 149.638 53.7167 149.801 54.2621C149.852 54.4371 149.821 54.8912 149.737 55.2514C149.631 55.7029 148.95 56.0859 148.446 56.4005L145.796 58.0544C145.654 58.1508 145.425 58.2878 145.174 58.3968C143.99 58.9143 143.265 58.0417 142.917 56.9814C142.536 55.817 142.925 54.3356 143.194 53.151L144.221 48.6357C143.903 48.6357 142.854 48.6864 142.348 48.6357C142.094 48.6103 141.929 48.5165 141.814 48.2882C141.68 48.0142 141.817 47.758 142.028 47.5323C142.147 47.4054 142.861 46.7966 143.082 46.685C143.552 46.4491 144.134 46.4871 144.64 46.4871C144.747 46.0483 145.181 44.0114 145.443 43.1438C145.583 42.6872 145.644 42.6821 146.012 42.4868C146.47 42.2458 147.331 41.7867 147.809 41.5888C148.802 41.1754 148.685 42.1596 148.558 42.7303L147.743 46.444C148.223 46.4516 150.766 46.4161 151.026 46.5379C151.473 46.7459 151.404 47.1137 151.148 47.4308L150.418 48.3338L150.423 48.3389ZM29.7935 27.4976C33.295 24.3623 37.5538 22.13 42.2394 21.0494C49.4458 19.3879 56.9596 20.6232 63.2715 24.4688C63.5002 24.588 63.5027 24.9229 63.2689 25.0446C62.8039 25.2856 62.3491 25.5393 61.8968 25.8006C61.7951 25.8589 61.6732 25.8589 61.5715 25.8006C55.8364 22.5283 49.1332 21.5288 42.6943 23.0128C38.3009 24.0249 34.3089 26.1303 31.0412 29.0881C25.3188 34.2629 22.1146 41.774 22.4042 49.4956C22.5974 54.6197 24.3049 59.5941 27.3109 63.7568C32.8936 71.4861 42.397 75.664 51.9055 74.4489C52.0376 74.4261 52.1698 74.4869 52.2409 74.5986L53.0083 75.8492C53.0388 75.8897 53.0566 75.9354 53.0642 75.9861C53.0921 76.1637 52.9676 76.3286 52.7898 76.3565C42.4478 77.914 32.0627 73.5585 25.8727 65.2027C22.4728 60.6113 20.5595 55.0763 20.3841 49.3764C20.1275 41.0866 23.6265 33.0225 29.7961 27.4976H29.7935ZM34.7917 28.1774C37.2718 26.4956 40.0618 25.2679 43.0526 24.5779C45.8299 23.9387 48.714 23.7814 51.5447 24.1289C54.383 24.4764 57.14 25.3211 59.6861 26.6123C59.9148 26.7112 59.9504 27.0309 59.7395 27.178C59.3354 27.4596 58.9365 27.7487 58.5452 28.0481C58.4486 28.1242 58.3165 28.1419 58.2021 28.0887C55.9254 27.0156 53.4784 26.3257 50.9755 26.0542C48.4751 25.7854 45.9493 25.9401 43.4972 26.5058C40.7631 27.1349 38.2119 28.2561 35.9428 29.7882C29.9689 33.8215 26.2386 40.526 25.9845 47.7276C25.799 52.9557 27.4532 58.1102 30.6575 62.2576C35.1907 68.1199 42.4122 71.4556 49.8447 71.0396C49.9641 71.032 50.0785 71.0929 50.142 71.1944L50.917 72.4576C51.0593 72.658 50.9272 72.9472 50.6756 72.9675C42.3716 73.6752 34.2479 70.0681 29.1354 63.5437C25.578 59.0056 23.8399 53.4605 24.0381 47.7225C24.3075 39.8563 28.2715 32.6039 34.7917 28.18V28.1774ZM50.3885 82.8909L48.1092 96.3201C48.0431 96.7108 47.9364 97.005 47.4587 96.9999C46.9988 96.9949 46.8844 96.6981 46.8184 96.3226L44.3612 82.7743C44.2672 82.2568 44.3612 81.9828 44.9456 81.9828H49.7202C50.3453 81.9828 50.5003 82.2339 50.3885 82.8909ZM14.1332 46.4466L0.681058 48.722C0.289741 48.7879 -0.00501731 48.8945 6.47265e-05 49.3713C0.00514677 49.8305 0.302446 49.9446 0.678517 50.0106L14.2501 52.4636C14.7685 52.5574 15.0429 52.4636 15.0429 51.8801V47.1137C15.0429 46.4897 14.7913 46.335 14.1332 46.4466Z" fill="#1D1D1B"></path></svg> 